# xmcd CD database file
#
# Track frame offsets:
#	150
#	14838
#	28221
#	39778
#	45294
#	57978
#	71626
#	88537
#	98761
#	111687
#
# Disc length: 1678 seconds
#
# Revision: 3
# Processed by: cddbd v1.5PL3 Copyright (c) Steve Scherf et al.
# Submitted via: CDex 1.51
#
DISCID=83068c0a
DTITLE=Fabrizio De André - 1968 Volume III
DYEAR=1968
DGENRE=Cantautori Italiani
TTITLE0=La canzone di Marinella
TTITLE1=Il gorilla
TTITLE2=La ballata dell'eroe
TTITLE3=S'i' fosse foco
TTITLE4=Amore che vieni, amore che vai
TTITLE5=La guerra di Piero
TTITLE6=Il testamento
TTITLE7=Nell'acqua della chiara fontana
TTITLE8=La ballata del Miche'
TTITLE9=Il Re fa rullare i tamburi
EXTD=YEAR: 1968
EXTT0=
EXTT1=
EXTT2=
EXTT3=
EXTT4=
EXTT5=
EXTT6=
EXTT7=
EXTT8=
EXTT9=
PLAYORDER=
